#!OML:ASF H:\Pregnant\Project 1\Capture day 1\Session 1\femalepreg.ASF
:FULLY-SPECIFIED
:DEGREES
477
root 5.65654 15.5791 28.5547 75.7309 -87.8661 -59.0665
lowerback -17.8852 0.0143614 -1.37672
upperback -1.26167 0.217892 -0.175988
thorax 8.67279 0.015767 0.641465
lowerneck -31.0307 9.98971 7.06963
upperneck 12.6394 12.7188 -10.5603
head 10.1464 4.88195 -2.65672
rclavicle -1.59028e-015 -1.63003e-014
rhumerus -101.667 45.0705 -119.493
rradius 122.299
rwrist -77.8119
rhand -23.2407 -60.0202
rfingers 7.12502
rthumb 3.21063 -89.9758
lclavicle -1.59028e-015 -1.63003e-014
lhumerus -103.61 -41.7959 122.753
lradius 122.581
lwrist 104.686
lhand -46.0588 46.2425
lfingers 7.12502
lthumb -18.8023 75.3538
rfemur -31.2266 21.4588 19.4563
rtibia 33.0262
rfoot -15.2023 -17.3363
rtoes 0.727808
lfemur -22.1685 -16.0866 -17.9909
ltibia 13.8067
lfoot -5.62339 10.7073
ltoes -7.1536
478
root 5.66629 15.5769 28.5598 74.3679 -87.8724 -57.7147
lowerback -17.683 0.00653437 -1.43885
upperback -1.20203 0.225038 -0.223871
thorax 8.62557 0.0194244 0.626557
lowerneck -31.1558 10.3295 7.28079
upperneck 12.2015 13.1477 -11.1063
head 10.1102 5.02171 -2.79807
rclavicle 1.54058e-015 0
rhumerus -101.407 45.167 -119.884
rradius 122.484
rwrist -79.2241
rhand -24.6369 -61.6348
rfingers 7.12502
rthumb 1.8622 -268.394
lclavicle 1.54058e-015 0
lhumerus -103.345 -41.9309 122.975
lradius 122.868
lwrist 106.198
lhand -47.8093 47.8482
lfingers 7.12502
lthumb -20.4852 76.7875
rfemur -31.3165 21.448 19.4012
rtibia 33.1458
rfoot -15.1783 -17.3988
rtoes 0.589707
lfemur -22.2334 -16.1016 -18.0337
ltibia 13.8579
lfoot -5.61279 10.6609
ltoes -7.09845
479
root 5.67605 15.5747 28.5653 73.1063 -87.9029 -56.4528
lowerback -17.4983 0.00255092 -1.52017
upperback -1.1404 0.241446 -0.278007
thorax 8.58987 0.0267406 0.618144
lowerneck -31.2922 10.6913 7.52338
upperneck 11.7803 13.6033 -11.706
head 10.096 5.16746 -2.95598
rclavicle 5.36719e-015 1.98785e-014
rhumerus -101.132 45.2837 -120.233
rradius 122.695
rwrist -80.956
rhand -26.0056 -63.2881
rfingers 7.12502
rthumb 0.540298 -266.733
lclavicle 5.36719e-015 1.98785e-014
lhumerus -103.095 -42.077 123.221
lradius 123.164
lwrist 107.672
lhand -49.6257 49.5968
lfingers 7.12502
lthumb -22.2298 78.3384
rfemur -31.4391 21.4381 19.3166
rtibia 33.2924
rfoot -15.1551 -17.4525
rtoes 0.420699
lfemur -22.2921 -16.1073 -18.0989
ltibia 13.8781
lfoot -5.58241 10.6139
ltoes -7.07691
480
root 5.68553 15.5724 28.5711 72.1147 -87.9511 -55.4472
lowerback -17.3439 0.00615382 -1.60675
upperback -1.0711 0.269786 -0.338747
thorax 8.57892 0.0394492 0.608553
lowerneck -31.4374 11.0667 7.77036
upperneck 11.3645 14.0786 -12.3352
head 10.0953 5.31804 -3.11912
rclavicle 7.65321e-015 -6.36111e-015
rhumerus -100.826 45.4221 -120.53
rradius 122.935
rwrist -82.9854
rhand -27.3372 -64.9615
rfingers 7.12502
rthumb -0.745801 -265.06
lclavicle 7.65321e-015 -6.36111e-015
lhumerus -102.855 -42.2432 123.489
lradius 123.461
lwrist 109.069
lhand -51.4628 51.5444
lfingers 7.12502
lthumb -23.9924 80.065
rfemur -31.5919 21.4363 19.2108
rtibia 33.4577
rfoot -15.1316 -17.4998
rtoes 0.234438
lfemur -22.3544 -16.112 -18.1737
ltibia 13.8852
lfoot -5.53929 10.5815
ltoes -7.09848
481
root 5.69478 15.5703 28.5774 71.3252 -88.0047 -54.6263
lowerback -17.2214 0.017292 -1.68414
upperback -0.996174 0.307082 -0.404158
thorax 8.59171 0.0566072 0.590903
lowerneck -31.5737 11.4592 8.03953
upperneck 10.9436 14.5742 -13.0089
head 10.1053 5.47391 -3.29535
rclavicle 0 1.82882e-014
rhumerus -100.489 45.572 -120.777
rradius 123.197
rwrist -85.2367
rhand -28.6823 -66.6856
rfingers 7.12502
rthumb -2.04484 -263.344
lclavicle 0 1.82882e-014
lhumerus -102.637 -42.4285 123.792
lradius 123.749
lwrist 110.339
lhand -53.3296 53.8723
lfingers 7.12502
lthumb -25.7814 82.1455
rfemur -31.7709 21.4306 19.0955
rtibia 33.6319
rfoot -15.11 -17.5319
rtoes 0.04538
lfemur -22.4397 -16.1101 -18.2482
ltibia 13.9038
lfoot -5.50532 10.5571
ltoes -7.08734
482
root 5.70367 15.5682 28.5844 70.7325 -88.0513 -53.9829
lowerback -17.1291 0.0353208 -1.74605
upperback -0.918611 0.350909 -0.469984
thorax 8.62403 0.0772262 0.565608
lowerneck -31.7028 11.8633 8.31439
upperneck 10.5194 15.086 -13.7094
head 10.1242 5.63453 -3.4765
rclavicle -2.23633e-015 1.23246e-014
rhumerus -100.121 45.7181 -120.985
rradius 123.469
rwrist -87.5776
rhand -30.0524 -68.4709
rfingers 7.12502
rthumb -3.36806 -261.576
lclavicle -2.23633e-015 1.23246e-014
lhumerus -102.454 -42.6295 124.143
lradius 124.021
lwrist 111.44
lhand -55.1543 56.6947
lfingers 7.12502
lthumb -27.5277 84.7022
rfemur -31.9707 21.4188 18.9826
rtibia 33.8054
rfoot -15.0865 -17.5516
rtoes -0.15428
lfemur -22.5639 -16.11 -18.308
ltibia 13.9586
lfoot -5.49419 10.5446
ltoes -7.0218
